<?xml version="1.0" standalone="no"?>
<!DOCTYPE svg PUBLIC "-//W3C//DTD SVG 20010904//EN"
 "http://www.w3.org/TR/2001/REC-SVG-20010904/DTD/svg10.dtd">
<svg version="1.0" xmlns="http://www.w3.org/2000/svg"
 width="795.000000pt" height="312.000000pt" viewBox="0 0 795.000000 312.000000"
 preserveAspectRatio="xMidYMid meet">

<g transform="translate(0.000000,312.000000) scale(0.100000,-0.100000)"
fill="#0000D8" stroke="none">
<path d="M4902 2960 c-124 -18 -254 -116 -312 -233 -44 -90 -59 -191 -60 -402
0 -306 22 -408 110 -507 91 -102 188 -146 341 -155 272 -16 429 81 509 317 21
60 23 85 24 320 1 275 -4 318 -53 420 -34 73 -122 160 -200 199 -88 45 -225
60 -359 41z m246 -231 c89 -43 118 -114 133 -323 16 -231 -9 -403 -69 -469
-49 -55 -194 -84 -278 -57 -106 35 -148 108 -165 286 -14 143 0 386 25 445 21
50 70 97 131 126 43 21 59 23 115 18 36 -3 84 -15 108 -26z"/>
<path d="M752 2930 c-106 -22 -229 -116 -276 -213 -39 -79 -45 -135 -54 -474
l-7 -312 -30 -31 c-38 -41 -71 -57 -142 -73 l-58 -14 -3 -130 -3 -131 65 -4
c50 -3 71 -10 100 -32 71 -54 69 -43 81 -425 10 -333 11 -348 34 -391 41 -79
90 -137 144 -173 83 -55 136 -68 290 -74 l137 -6 0 132 0 131 -75 0 c-114 0
-174 16 -216 59 -45 44 -46 53 -54 421 -3 140 -10 272 -15 292 -16 55 -69 128
-125 170 -27 21 -51 41 -52 45 -1 5 16 19 39 33 49 30 124 127 137 178 6 21
14 177 19 348 10 340 12 352 70 391 34 23 60 28 195 39 l78 6 -3 121 -3 122
-115 2 c-63 0 -134 -3 -158 -7z"/>
<path d="M2027 2933 c-4 -3 -7 -59 -7 -124 l0 -117 78 -6 c154 -13 164 -15
203 -55 45 -45 46 -52 54 -386 4 -132 11 -269 16 -305 15 -95 60 -163 148
-221 l24 -15 -70 -70 c-102 -100 -103 -107 -109 -449 -6 -330 -12 -369 -59
-418 -40 -41 -98 -57 -210 -57 l-75 0 0 -130 0 -130 105 0 c126 0 192 13 265
51 102 55 169 134 200 237 17 58 21 111 27 384 l8 316 31 39 c34 42 98 72 157
72 l37 1 0 134 0 135 -47 7 c-103 15 -157 59 -172 139 -5 28 -12 169 -16 315
-10 383 -18 422 -116 525 -65 69 -152 112 -249 125 -87 11 -214 13 -223 3z"/>
<path d="M3410 2310 l0 -630 263 0 c319 0 410 9 473 46 63 37 110 88 147 159
28 54 31 69 31 150 0 75 -4 98 -23 135 -26 52 -81 112 -129 142 l-34 21 49 42
c27 24 61 66 77 94 25 46 28 61 27 145 0 80 -4 102 -25 143 -30 59 -75 106
-135 141 -44 26 -53 27 -246 34 -110 3 -262 7 -337 7 l-138 1 0 -630z m587
404 c102 -75 70 -232 -53 -263 -23 -6 -104 -11 -178 -11 l-136 0 0 151 0 151
170 -4 c151 -3 172 -6 197 -24z m-2 -499 c135 -67 119 -285 -23 -325 -20 -5
-106 -10 -189 -10 l-153 0 0 181 0 181 163 -4 c135 -3 169 -7 202 -23z"/>
<path d="M5770 2310 l0 -630 115 0 115 0 0 255 0 255 255 0 255 0 0 105 0 105
-255 0 -255 0 0 165 0 165 305 0 305 0 0 105 0 105 -420 0 -420 0 0 -630z"/>
<path d="M6827 2933 c-3 -5 -2 -226 2 -493 l7 -485 26 -57 c54 -118 172 -207
298 -227 105 -17 229 -14 302 9 145 44 253 157 278 288 4 26 10 254 11 507 l3
460 -115 0 -114 0 -5 -470 -5 -470 -24 -38 c-34 -56 -89 -80 -191 -84 -74 -3
-91 -1 -130 20 -25 13 -58 42 -75 66 l-30 43 -6 466 c-4 257 -7 468 -8 470 -3
6 -220 1 -224 -5z"/>
<path d="M1070 1724 l0 -766 368 4 368 3 76 38 c147 72 217 182 226 353 8 170
-49 285 -180 363 -21 13 -38 26 -38 30 0 4 13 14 29 24 68 40 126 143 142 252
29 191 -49 348 -209 422 -71 33 -180 42 -514 43 l-268 0 0 -766z m641 525 c39
-10 68 -37 94 -88 13 -27 16 -51 13 -108 -4 -63 -9 -79 -35 -111 -48 -59 -97
-71 -300 -72 l-173 0 0 195 0 194 73 4 c98 5 284 -3 328 -14z m19 -621 c157
-68 183 -323 42 -406 -47 -27 -49 -27 -254 -30 l-208 -3 0 224 c0 123 3 227 8
231 4 5 90 6 192 4 136 -3 194 -9 220 -20z"/>
<path d="M3789 1479 c-191 -20 -324 -148 -374 -359 -14 -60 -18 -118 -18 -285
1 -242 9 -302 58 -402 45 -90 107 -154 199 -201 70 -36 73 -36 208 -40 162 -5
215 7 307 69 103 68 181 207 181 320 l0 39 -110 0 c-80 0 -112 -3 -114 -12 -2
-7 -9 -33 -16 -58 -16 -60 -80 -124 -140 -140 -24 -7 -74 -10 -111 -8 -148 8
-215 110 -234 358 -8 96 8 283 30 357 28 94 116 154 229 155 71 0 137 -24 173
-63 26 -29 53 -100 53 -140 l0 -29 118 0 c65 0 121 2 124 5 12 12 -14 144 -41
201 -51 110 -152 194 -266 222 -61 15 -172 20 -256 11z"/>
<path d="M4608 1463 l-28 -4 0 -625 0 -624 110 0 110 0 0 270 0 270 233 -2
232 -3 3 -267 2 -268 115 0 115 0 0 523 c0 288 -3 572 -7 630 l-6 107 -71 0
c-39 0 -88 -3 -108 -6 l-38 -7 0 -253 0 -254 -232 2 -233 3 -6 240 c-4 132 -7
248 -8 258 -1 15 -11 17 -78 16 -43 -1 -90 -4 -105 -6z"/>
<path d="M5757 1198 c-4 -149 -7 -433 -7 -630 l0 -358 420 0 420 0 0 105 0
105 -300 0 -300 0 0 165 0 165 249 0 248 0 7 53 c3 28 6 73 6 100 l0 47 -255
0 -255 0 0 160 0 160 295 0 295 0 0 100 0 100 -408 0 -409 0 -6 -272z"/>
<path d="M6820 840 l0 -630 110 0 110 0 0 453 c1 357 3 449 13 436 7 -9 102
-212 212 -452 l200 -436 143 -1 142 0 0 630 0 630 -110 0 -110 0 0 -427 c0
-236 -4 -434 -8 -441 -6 -8 -31 37 -74 130 -36 79 -128 277 -204 441 l-138
297 -143 0 -143 0 0 -630z"/>
</g>
</svg>
