<?xml version="1.0" standalone="no"?>
<!DOCTYPE svg PUBLIC "-//W3C//DTD SVG 20010904//EN"
 "http://www.w3.org/TR/2001/REC-SVG-20010904/DTD/svg10.dtd">
<svg version="1.0" xmlns="http://www.w3.org/2000/svg"
 width="1024.000000pt" height="1024.000000pt" viewBox="0 0 1024.000000 1024.000000"
 preserveAspectRatio="xMidYMid meet">

<g transform="translate(0.000000,1024.000000) scale(0.100000,-0.100000)"
fill="#0000D8" stroke="none">
<path d="M5751 6365 c-80 -23 -147 -63 -199 -120 -99 -110 -127 -235 -119
-540 6 -264 27 -336 125 -439 89 -92 209 -131 382 -124 212 10 334 98 401 289
21 58 23 86 27 289 4 247 -5 324 -52 426 -37 81 -112 155 -198 194 -66 31 -80
33 -192 37 -87 2 -136 -1 -175 -12z m266 -213 c97 -50 125 -126 130 -362 9
-333 -45 -438 -229 -448 -79 -5 -127 9 -176 52 -52 46 -72 99 -82 229 -10 125
1 355 19 402 23 59 63 104 115 130 43 23 61 26 116 22 39 -2 82 -12 107 -25z"/>
<path d="M1819 6326 c-110 -45 -170 -98 -217 -191 -36 -72 -42 -136 -42 -421
0 -301 -3 -319 -58 -366 -33 -27 -70 -42 -134 -53 l-38 -6 0 -124 0 -125 44 0
c25 0 57 -5 73 -11 31 -11 78 -53 96 -84 8 -14 14 -122 17 -335 l5 -315 32
-67 c17 -37 52 -87 76 -112 86 -85 176 -116 345 -116 l112 0 0 125 0 125 -92
0 c-109 0 -162 19 -199 71 -24 34 -24 37 -29 334 -5 285 -6 302 -28 349 -32
70 -64 109 -117 142 -25 16 -45 32 -45 35 0 4 13 12 28 18 43 18 108 89 134
146 22 48 23 64 28 350 6 335 7 343 76 386 30 18 55 23 140 27 l104 5 0 118 0
119 -127 0 c-110 0 -136 -4 -184 -24z"/>
<path d="M3070 6231 l0 -119 98 -4 c107 -4 147 -19 186 -71 20 -27 21 -44 27
-325 6 -321 12 -356 65 -433 14 -21 46 -51 70 -66 24 -16 44 -31 44 -35 0 -4
-13 -14 -29 -22 -47 -25 -110 -104 -126 -159 -12 -39 -15 -110 -15 -311 0
-271 -6 -322 -38 -365 -42 -58 -77 -71 -183 -71 l-99 0 0 -125 0 -125 103 0
c56 0 122 5 146 11 155 35 268 148 300 297 6 32 11 161 11 322 0 165 4 280 11
297 25 66 95 113 169 113 l40 0 0 130 0 130 -35 0 c-40 0 -100 22 -128 48 -49
44 -52 59 -58 382 -6 343 -11 367 -78 461 -49 69 -128 124 -206 144 -35 9
-103 15 -167 15 l-108 0 0 -119z"/>
<path d="M4380 5755 l0 -596 303 3 c282 3 305 5 355 25 81 33 136 84 174 161
29 59 33 76 33 147 -1 61 -6 92 -23 130 -26 57 -82 118 -123 136 -16 6 -29 14
-28 18 0 3 19 20 42 36 24 18 55 54 72 85 27 49 30 64 30 140 0 67 -5 95 -23
135 -30 65 -82 118 -146 147 -49 22 -62 23 -358 26 l-308 3 0 -596z m534 391
c18 -7 43 -26 55 -42 32 -40 26 -131 -10 -170 -42 -46 -76 -54 -229 -54 l-140
0 0 140 0 140 145 0 c101 0 156 -4 179 -14z m-6 -471 c65 -20 100 -62 109
-133 10 -87 -29 -155 -106 -181 -19 -6 -97 -11 -177 -11 l-144 0 0 170 0 170
133 0 c91 0 150 -5 185 -15z"/>
<path d="M6600 5755 l0 -595 110 0 110 0 0 240 0 240 245 0 245 0 0 100 0 100
-245 0 -245 0 0 155 0 156 288 -1 287 -1 3 100 3 101 -401 0 -400 0 0 -595z"/>
<path d="M7602 5898 c3 -397 6 -459 21 -505 33 -99 129 -193 231 -228 64 -22
234 -31 307 -16 136 28 244 113 291 229 23 56 23 63 26 515 l3 457 -111 0
-110 0 0 -432 c0 -401 -2 -436 -19 -474 -31 -69 -100 -104 -203 -104 -91 0
-158 36 -196 105 -15 26 -17 83 -20 468 l-3 437 -110 0 -110 0 3 -452z"/>
<path d="M2170 5206 l0 -726 323 0 c237 0 335 4 372 14 162 43 260 150 285
310 27 173 -39 332 -164 394 -46 23 -60 42 -30 42 8 0 37 22 64 50 66 68 92
139 93 250 0 150 -45 249 -147 317 -92 63 -117 66 -473 71 l-323 3 0 -725z
m630 485 c21 -11 43 -35 58 -62 20 -37 23 -54 19 -111 -3 -54 -10 -75 -32
-104 -48 -63 -86 -74 -277 -74 l-168 0 0 185 0 184 83 3 c157 6 280 -3 317
-21z m-5 -580 c80 -37 125 -111 125 -206 0 -93 -34 -154 -105 -186 -34 -16
-67 -19 -227 -19 l-188 0 0 215 0 215 178 0 c151 0 183 -3 217 -19z"/>
<path d="M4658 4961 c-75 -24 -115 -50 -172 -111 -100 -107 -131 -241 -123
-535 3 -142 9 -204 22 -245 45 -142 115 -229 227 -280 66 -31 84 -34 186 -38
88 -4 128 -1 179 13 158 43 273 176 289 334 l7 61 -110 0 -111 0 -7 -37 c-16
-90 -72 -147 -158 -165 -113 -24 -216 21 -260 114 -44 90 -58 266 -37 451 12
100 29 149 68 191 81 86 252 88 329 5 29 -31 53 -90 53 -129 l0 -30 116 0 117
0 -6 67 c-16 170 -143 312 -306 343 -86 16 -238 12 -303 -9z"/>
<path d="M5583 4962 l-103 -3 0 -594 0 -595 105 0 105 0 0 255 0 255 220 0
220 0 0 -255 0 -255 110 0 110 0 0 594 c0 327 -3 596 -7 598 -5 2 -54 2 -110
0 l-103 -3 0 -245 0 -244 -217 2 -218 3 -5 245 -5 245 -102 -3z"/>
<path d="M6594 4961 c-2 -2 -4 -271 -4 -598 l0 -593 395 0 395 0 0 100 0 100
-285 0 -285 0 0 155 0 155 239 0 240 0 3 95 3 95 -242 0 -243 0 0 150 0 150
280 0 280 0 0 98 0 97 -386 0 c-212 0 -388 -2 -390 -4z"/>
<path d="M7600 4368 l0 -598 105 0 105 0 0 433 0 432 199 -430 198 -430 137
-3 136 -3 0 598 0 598 -105 0 -105 0 -2 -430 c-2 -272 -6 -423 -12 -410 -165
359 -331 716 -357 769 l-34 69 -133 1 -132 1 0 -597z"/>
</g>
</svg>
